<?xml version="1.0" standalone="no"?>
<!DOCTYPE svg PUBLIC "-//W3C//DTD SVG 20010904//EN"
 "http://www.w3.org/TR/2001/REC-SVG-20010904/DTD/svg10.dtd">
<svg version="1.0" xmlns="http://www.w3.org/2000/svg"
 width="1141.000000pt" height="1141.000000pt" viewBox="0 0 1141.000000 1141.000000"
 preserveAspectRatio="xMidYMid meet">
<metadata>
Created by potrace 1.11, written by Peter Selinger 2001-2013
</metadata>
<g transform="translate(0.000000,1141.000000) scale(0.100000,-0.100000)"
fill="#000000" stroke="none">
<path d="M5270 9114 c-151 -52 -354 -121 -450 -155 -96 -34 -184 -63 -195 -66
-11 -3 -27 -7 -35 -11 -8 -3 -17 -6 -20 -7 -3 -1 -12 -4 -20 -8 -8 -3 -51 -18
-95 -33 -110 -37 -661 -225 -820 -280 -71 -25 -137 -47 -145 -49 -14 -4 -294
-100 -610 -210 -74 -25 -142 -48 -150 -50 -16 -4 -305 -104 -305 -106 0 0 -7
-2 -15 -4 -8 -2 -154 -52 -325 -110 -326 -112 -475 -163 -640 -220 -167 -56
-463 -158 -805 -275 -179 -61 -394 -134 -477 -163 -84 -28 -149 -55 -145 -58
4 -4 54 -23 112 -43 58 -19 251 -85 430 -146 513 -176 731 -250 790 -270 77
-26 624 -214 745 -256 55 -19 107 -37 115 -39 8 -2 134 -45 280 -95 146 -51
283 -98 305 -105 46 -15 341 -116 805 -275 179 -61 350 -120 380 -130 30 -10
213 -72 405 -138 395 -136 1025 -351 1128 -386 l68 -24 117 40 c64 22 261 90
437 150 176 61 358 123 405 138 47 16 211 72 365 125 154 53 339 116 410 140
72 25 209 72 305 105 96 34 182 63 190 65 8 2 134 45 280 95 382 132 630 216
1014 346 l339 114 56 -32 c274 -154 434 -320 593 -613 49 -91 127 -249 178
-360 64 -140 75 -165 120 -271 l47 -112 -27 -32 c-15 -18 -52 -78 -81 -134
-48 -91 -53 -107 -53 -166 -1 -102 55 -192 169 -270 37 -26 257 -135 307 -153
16 -6 10 -23 -47 -137 -151 -301 -395 -872 -395 -923 0 -7 -3 -17 -7 -21 -5
-4 -8 -11 -9 -14 0 -4 -3 -14 -6 -22 -8 -19 -41 -132 -44 -145 -1 -5 -11 -46
-22 -90 -12 -44 -24 -102 -28 -130 -3 -27 -8 -59 -10 -70 -2 -11 -4 -54 -5
-96 -1 -124 58 -277 137 -353 48 -47 110 -74 314 -141 96 -31 229 -78 295
-105 154 -62 161 -64 218 -62 170 5 300 185 251 350 -6 23 -40 86 -74 138 -61
94 -190 350 -190 377 0 7 -4 17 -8 23 -5 5 -15 25 -22 44 -7 19 -19 49 -26 65
-70 165 -127 339 -139 425 -8 63 -18 224 -18 290 1 76 12 299 17 326 2 11 7
48 11 84 9 85 20 168 31 225 2 11 9 47 15 79 10 55 16 66 102 158 51 55 98
111 106 125 39 74 -39 238 -144 303 -39 24 -135 58 -185 66 -19 3 -36 7 -37 8
-1 1 -3 57 -4 125 -3 250 -24 286 -439 777 -220 260 -275 319 -348 374 -19 14
-39 30 -46 37 -19 17 -185 123 -193 123 -5 0 -18 8 -31 18 -23 18 -22 18 95
60 65 23 199 69 298 102 99 33 187 64 195 67 8 3 20 7 25 9 6 1 156 53 335
114 179 61 337 115 352 120 69 21 65 26 -53 65 -63 21 -118 41 -124 45 -5 4
-21 10 -35 13 -14 2 -164 53 -335 112 -170 59 -335 115 -365 125 -30 10 -206
69 -390 133 -184 63 -371 127 -415 141 -44 15 -89 31 -100 36 -11 4 -96 34
-190 65 -211 71 -449 152 -850 290 -170 58 -335 115 -365 125 -30 10 -188 64
-350 120 -162 56 -304 104 -315 107 -11 2 -29 9 -40 14 -11 4 -108 38 -215 75
-343 116 -535 181 -550 187 -8 4 -42 15 -75 26 -33 11 -212 72 -399 135 -186
64 -343 116 -350 115 -6 0 -135 -43 -286 -95z"/>
<path d="M1697 6422 c-2 -4 -3 -608 -2 -1342 1 -939 5 -1348 13 -1380 78 -315
311 -576 745 -834 84 -50 336 -170 462 -219 128 -50 292 -107 435 -152 164
-50 582 -147 735 -170 11 -2 35 -6 53 -9 33 -6 41 -7 157 -25 129 -19 150 -22
180 -26 17 -1 59 -6 95 -10 36 -3 76 -8 90 -10 14 -2 59 -6 100 -10 41 -3 98
-8 125 -10 223 -20 984 -27 1210 -12 145 10 245 18 285 22 19 3 64 7 100 10
36 3 81 8 100 10 36 5 88 11 163 20 23 3 53 7 67 10 14 3 42 7 63 10 20 3 54
7 75 10 20 3 48 7 62 10 56 12 77 16 110 21 27 4 206 41 332 69 97 21 366 98
498 142 735 245 1226 579 1414 963 23 47 43 87 43 90 0 3 6 23 11 45 29 109
27 36 47 1305 2 113 6 378 10 590 3 212 8 486 10 610 2 123 1 228 -1 232 -3 4
-19 1 -37 -6 -18 -8 -66 -26 -107 -41 -41 -15 -97 -35 -125 -45 -70 -26 -532
-194 -805 -293 -69 -25 -330 -120 -580 -212 -250 -92 -603 -220 -785 -286
-181 -66 -352 -129 -380 -139 -27 -11 -194 -72 -370 -136 -176 -63 -360 -130
-410 -149 -49 -18 -140 -52 -202 -75 -62 -22 -120 -42 -130 -42 -15 -1 -392
138 -468 172 -11 5 -256 100 -545 210 -289 110 -583 223 -655 251 -71 28 -155
59 -185 71 -30 11 -64 24 -75 29 -11 5 -92 36 -180 69 -88 33 -169 64 -180 69
-11 5 -45 18 -75 29 -552 211 -899 344 -915 352 -21 9 -359 138 -497 190 -43
16 -79 25 -81 22z"/>
</g>
</svg>
