<?xml version="1.0" encoding="UTF-8" standalone="no"?>
<svg
   xmlns:dc="http://purl.org/dc/elements/1.1/"
   xmlns:cc="http://creativecommons.org/ns#"
   xmlns:rdf="http://www.w3.org/1999/02/22-rdf-syntax-ns#"
   xmlns:svg="http://www.w3.org/2000/svg"
   xmlns="http://www.w3.org/2000/svg"
   viewBox="0 0 666.66669 666.66669"
   height="666.66669"
   width="666.66669"
   xml:space="preserve"
   id="svg2"
   version="1.1"><metadata
     id="metadata8"><rdf:RDF><cc:Work
         rdf:about=""><dc:format>image/svg+xml</dc:format><dc:type
           rdf:resource="http://purl.org/dc/dcmitype/StillImage" /></cc:Work></rdf:RDF></metadata><defs
     id="defs6"><clipPath
       id="clipPath18"
       clipPathUnits="userSpaceOnUse"><path
         id="path16"
         d="M 0,500 H 500 V 0 H 0 Z" /></clipPath><clipPath
       id="clipPath26"
       clipPathUnits="userSpaceOnUse"><path
         id="path24"
         d="M 113.202,350.029 H 380.349 V 258.66 H 113.202 Z" /></clipPath></defs><g
     transform="matrix(1.3333333,0,0,-1.3333333,0,666.66667)"
     id="g10"><g
       id="g12"><g
         clip-path="url(#clipPath18)"
         id="g14"><g
           id="g20"><g
             id="g22" /><g
             id="g34"><g
               id="g32"
               clip-path="url(#clipPath26)"><g
                 id="g30"
                 transform="translate(246.528,350.0289)"><path
                   id="path28"
                   style="fill:#662d91;fill-opacity:1;fill-rule:nonzero;stroke:none"
                   d="M 0,0 -133.326,-45.597 0.495,-91.369 133.821,-45.77 Z" /></g></g></g></g><g
           transform="translate(339.7759,221.2754)"
           id="g36"><path
             id="path38"
             style="fill:#662d91;fill-opacity:1;fill-rule:nonzero;stroke:none"
             d="m 0,0 c 0,-21.815 -41.637,-39.5 -93,-39.5 -51.362,0 -93,17.685 -93,39.5" /></g><g
           transform="translate(153.7759,283.2749)"
           id="g40"><path
             id="path42"
             style="fill:#662d91;fill-opacity:1;fill-rule:nonzero;stroke:none"
             d="m 0,0 v -62 h 186 l 1,61 -94.5,-34.5 z" /></g><g
           transform="translate(241.7759,315.2749)"
           id="g44"><path
             id="path46"
             style="fill:#662d91;fill-opacity:1;fill-rule:nonzero;stroke:none"
             d="m 0,0 c 0,0 96.168,-6.969 116.183,-30.938 12.301,-14.732 15.035,-16.42 15.035,-23.572 v -5.893 c 0,0 -4.101,4.42 4.1,1.473 2.594,-0.931 6.835,-5.893 4.101,-8.839 -2.161,-2.329 -4.101,-4.42 -4.101,-4.42 0,0 -4.366,-20.366 -0.266,-30.679 3.325,-8.361 5.065,-13.422 8.718,-18.6 3.842,-5.448 -1.844,-12.504 -7.958,-9.849 -0.151,0.066 -0.304,0.132 -0.458,0.198 -13.668,5.893 -16.62,3.28 -19.354,12.119 -3.135,10.139 13.851,42.391 13.851,42.391 0,0 -3.009,1.137 -6.467,3 -5.467,2.947 -6.181,6.984 -5.101,9.313 6.834,14.733 6.101,-0.527 6.101,-0.527 0,0 -8.201,22.099 -15.036,30.938 C 91.255,-10.482 0,-2.946 0,-2.946 Z" /></g><g
           transform="translate(330.7759,287.2749)"
           id="g48"><path
             id="path50"
             style="fill:#ffffff;fill-opacity:1;fill-rule:nonzero;stroke:none"
             d="m 0,0 c -30,16 -57,17 -62,20 -5,3 -7,7.261 -7,7.261 C -69,27.261 -22,18 9,3" /></g></g></g></g></svg>