<?xml version="1.0" encoding="utf-8"?>
<!-- Generator: Adobe Illustrator 24.1.2, SVG Export Plug-In . SVG Version: 6.00 Build 0)  -->
<svg version="1.1" id="レイヤー_1" xmlns="http://www.w3.org/2000/svg" xmlns:xlink="http://www.w3.org/1999/xlink" x="0px"
	 y="0px" viewBox="0 0 273.6 168.2" style="enable-background:new 0 0 273.6 168.2;" xml:space="preserve">
<style type="text/css">
	.st0{clip-path:url(#SVGID_2_);}
	.st1{fill:#662D91;}
	.st2{fill:#FFFFFF;}
</style>
<g>
	<g>
		<defs>
			<rect id="SVGID_1_" width="267.1" height="91.4"/>
		</defs>
		<clipPath id="SVGID_2_">
			<use xlink:href="#SVGID_1_"  style="overflow:visible;"/>
		</clipPath>
		<g class="st0">
			<polyline class="st1" points="133.3,0 0,45.6 133.8,91.4 267.1,45.8 133.3,0 			"/>
		</g>
	</g>
</g>
<path class="st1" d="M227.6,67.8l-94.5,34.5L40.6,66.8v62h0c0,21.8,41.6,39.5,93,39.5c51.4,0,93-17.7,93-39.5h0L227.6,67.8z"/>
<path class="st1" d="M128.6,34.8c0,0,96.2,7,116.2,30.9c12.3,14.7,15,16.4,15,23.6v5.9c0,0-4.1-4.4,4.1-1.5c2.6,0.9,6.8,5.9,4.1,8.8
	l-4.1,4.4c0,0-4.4,20.4-0.3,30.7c3.3,8.4,5.1,13.4,8.7,18.6c2.1,2.9,1.5,7-1.5,9.2c-1.9,1.4-4.4,1.6-6.5,0.7l-0.5-0.2
	c-13.7-5.9-16.6-3.3-19.3-12.1c-3.1-10.1,13.8-42.4,13.8-42.4c-2.2-0.9-4.4-1.9-6.5-3c-5.5-2.9-6.2-7-5.1-9.3
	c6.8-14.7,6.1,0.5,6.1,0.5s-8.2-22.1-15-30.9c-18.1-23.4-109.3-30.9-109.3-30.9L128.6,34.8z"/>
<path class="st1" d="M214.6,63.8"/>
<path class="st2" d="M217.6,62.8c-30-16-57-17-62-20c-3-1.7-5.4-4.3-7-7.3c0,0,47,9.3,78,24.3"/>
<path d="M243.9,160.6"/>
</svg>
